<svg xmlns="http://www.w3.org/2000/svg" width="232" height="102.26" viewBox="0 0 232 102.26"><rect width="232" height="102.26" fill="none"/><path d="M36.36,86.42a2.242,2.242,0,0,1-.89-1.84,3.008,3.008,0,0,1,.02-.35l.02-.2c.03-.15.11-.22.24-.22h1.01a.286.286,0,0,1,.17.04.1.1,0,0,1,.03.13l-.02.2a1.357,1.357,0,0,0,.46,1.23,2.136,2.136,0,0,0,1.51.5,2.435,2.435,0,0,0,1.65-.57,1.816,1.816,0,0,0,.66-1.43,1.163,1.163,0,0,0-.53-1.03,8.725,8.725,0,0,0-1.65-.77,7.3,7.3,0,0,1-2.1-1.09,2.122,2.122,0,0,1-.76-1.77,3.152,3.152,0,0,1,1.1-2.52,4.15,4.15,0,0,1,2.81-.94,3.53,3.53,0,0,1,2.35.72,2.407,2.407,0,0,1,.86,1.93,3.591,3.591,0,0,1-.02.4v.04a.237.237,0,0,1-.09.15.233.233,0,0,1-.15.07H42.03c-.13,0-.2-.05-.2-.15l.02-.15a1.385,1.385,0,0,0-.44-1.24,2.057,2.057,0,0,0-1.47-.49,2.532,2.532,0,0,0-1.65.53,1.706,1.706,0,0,0-.64,1.36,1.16,1.16,0,0,0,.52,1.02,7.8,7.8,0,0,0,1.61.78,12.713,12.713,0,0,1,1.5.64,2.961,2.961,0,0,1,1.03.87,2.225,2.225,0,0,1,.43,1.42,3.12,3.12,0,0,1-.02.37,3.237,3.237,0,0,1-1.26,2.24,4.289,4.289,0,0,1-2.71.83A3.8,3.8,0,0,1,36.36,86.42Z" fill="#fff"/><path d="M44.89,86.79l1.3-10.67c.03-.15.11-.22.24-.22h1.1a.151.151,0,0,1,.14.07.136.136,0,0,1,.03.15L46.38,86.79a.18.18,0,0,1-.07.15.267.267,0,0,1-.18.07H45.05C44.92,87.01,44.86,86.94,44.89,86.79Zm1.6-13.16a.959.959,0,0,1-.26-.71,1.228,1.228,0,0,1,.36-.91,1.214,1.214,0,0,1,.89-.36.959.959,0,0,1,.7.26.889.889,0,0,1,.26.68,1.316,1.316,0,0,1-.35.94,1.149,1.149,0,0,1-.88.37A.9.9,0,0,1,46.49,73.63Z" fill="#fff"/><path d="M62.58,76.53a3.1,3.1,0,0,1,.7,2.16c0,.13-.01.37-.04.72l-.9,7.38c-.03.15-.11.22-.24.22H61.02c-.15,0-.21-.07-.18-.22l.88-7.16c.01-.12.02-.29.02-.5a2.189,2.189,0,0,0-.47-1.48,1.626,1.626,0,0,0-1.29-.54,2.233,2.233,0,0,0-1.64.67,2.949,2.949,0,0,0-.8,1.81l-.88,7.2c-.03.15-.11.22-.24.22h-1.1c-.15,0-.21-.07-.18-.22l.88-7.16c.01-.12.02-.29.02-.5a2.189,2.189,0,0,0-.47-1.48,1.619,1.619,0,0,0-1.28-.54,2.158,2.158,0,0,0-1.62.67,3,3,0,0,0-.79,1.81L51,86.79a.237.237,0,0,1-.09.15.233.233,0,0,1-.15.07h-1.1c-.15,0-.21-.07-.18-.22l1.3-10.67a.237.237,0,0,1,.09-.15.257.257,0,0,1,.15-.07h1.1c.15,0,.21.07.18.22l-.09.77c0,.07.03.08.09.02a3.221,3.221,0,0,1,1.2-.88,3.8,3.8,0,0,1,1.46-.29,2.726,2.726,0,0,1,1.58.44,2.458,2.458,0,0,1,.92,1.23c0,.03.01.04.03.04a.051.051,0,0,0,.05-.04,3.3,3.3,0,0,1,1.34-1.26,3.831,3.831,0,0,1,1.73-.41A2.551,2.551,0,0,1,62.58,76.53Z" fill="#fff"/><path d="M73.58,81.44a18.208,18.208,0,0,1-.46,2.55,4.685,4.685,0,0,1-1.42,2.37,3.491,3.491,0,0,1-2.36.83,2.258,2.258,0,0,1-2.28-1.27.051.051,0,0,0-.05-.04c-.02,0-.04.02-.05.07l-.62,5.12a.237.237,0,0,1-.09.15.233.233,0,0,1-.15.07H65c-.15,0-.21-.07-.18-.22l1.82-14.93c.03-.15.11-.22.24-.22h1.1a.151.151,0,0,1,.14.07.136.136,0,0,1,.03.15l-.11.86c0,.04.01.07.04.08s.05-.01.07-.06a3.143,3.143,0,0,1,2.66-1.27,2.552,2.552,0,0,1,2.17.97,4.459,4.459,0,0,1,.75,2.79A12.792,12.792,0,0,1,73.58,81.44Zm-1.51.02a15.686,15.686,0,0,0,.13-1.8c0-.29-.01-.5-.02-.64a2.145,2.145,0,0,0-.54-1.42,1.831,1.831,0,0,0-1.37-.52,2.041,2.041,0,0,0-1.42.52,3.124,3.124,0,0,0-.87,1.39,14.028,14.028,0,0,0-.48,2.46,16.284,16.284,0,0,0-.13,1.84c0,.29.01.5.02.64a2.167,2.167,0,0,0,.49,1.38,1.649,1.649,0,0,0,1.28.5,2.24,2.24,0,0,0,1.45-.5,2.85,2.85,0,0,0,.9-1.34A10.737,10.737,0,0,0,72.07,81.46Z" fill="#fff"/><path d="M75.54,86.79l1.82-14.93c.03-.15.11-.22.24-.22h1.1a.151.151,0,0,1,.14.07.14.14,0,0,1,.03.15L77.05,86.79c-.03.15-.11.22-.24.22h-1.1C75.57,87.01,75.51,86.94,75.54,86.79Z" fill="#fff"/><path d="M80.15,86.79l1.3-10.67c.03-.15.11-.22.24-.22h1.1a.151.151,0,0,1,.14.07.136.136,0,0,1,.03.15L81.64,86.79a.18.18,0,0,1-.07.15.267.267,0,0,1-.18.07H80.31C80.18,87.01,80.12,86.94,80.15,86.79Zm1.6-13.16a.959.959,0,0,1-.26-.71,1.228,1.228,0,0,1,.36-.91,1.214,1.214,0,0,1,.89-.36.959.959,0,0,1,.7.26.889.889,0,0,1,.26.68,1.316,1.316,0,0,1-.35.94,1.149,1.149,0,0,1-.88.37A.888.888,0,0,1,81.75,73.63Z" fill="#fff"/><path d="M88.87,73.47a3.568,3.568,0,0,0-.6,1.8l-.07.55a.08.08,0,0,0,.09.09h2c.15,0,.2.07.17.22l-.11.86a.18.18,0,0,1-.07.15.248.248,0,0,1-.18.07h-2a.08.08,0,0,0-.09.09l-1.16,9.51c-.03.15-.11.22-.24.22h-1.1a.151.151,0,0,1-.14-.07.14.14,0,0,1-.03-.15L86.5,77.3c0-.06-.02-.09-.07-.09H85.29c-.15,0-.21-.07-.18-.22l.11-.86a.18.18,0,0,1,.07-.15.233.233,0,0,1,.15-.07h1.14a.08.08,0,0,0,.09-.09l.09-.61a4.832,4.832,0,0,1,1.05-2.79,3.439,3.439,0,0,1,2.57-.83h.46c.15,0,.21.07.18.22l-.11.9a.18.18,0,0,1-.07.15.267.267,0,0,1-.18.07h-.37A1.694,1.694,0,0,0,88.87,73.47Z" fill="#fff"/><path d="M90.42,91.34a.16.16,0,0,1-.02-.15l.11-.9c.03-.15.08-.22.15-.22h.13a2.513,2.513,0,0,0,1.19-.24,2.242,2.242,0,0,0,.8-.86,11.521,11.521,0,0,0,.82-1.89.392.392,0,0,0,.02-.13l-1.84-10.8V76.1c0-.13.07-.2.22-.2h1.14c.15,0,.22.06.22.18l1.25,8.69c.03.07.07.07.11,0l3.36-8.67a.292.292,0,0,1,.26-.2h1.14q.24,0,.18.24L94.72,87.97a12.246,12.246,0,0,1-1.11,2.16,2.7,2.7,0,0,1-1.16.99,4.966,4.966,0,0,1-1.81.27h-.11C90.49,91.41,90.45,91.38,90.42,91.34Z" fill="#fff"/><path d="M103.51,91.34a.16.16,0,0,1-.02-.15l.11-.9c.03-.15.08-.22.15-.22h.13a2.513,2.513,0,0,0,1.19-.24,2.242,2.242,0,0,0,.8-.86,11.521,11.521,0,0,0,.82-1.89.392.392,0,0,0,.02-.13l-1.84-10.8V76.1c0-.13.07-.2.22-.2h1.14c.15,0,.22.06.22.18l1.25,8.69c.03.07.07.07.11,0l3.36-8.67a.292.292,0,0,1,.26-.2h1.14q.24,0,.18.24l-4.94,11.83a12.246,12.246,0,0,1-1.11,2.16,2.7,2.7,0,0,1-1.16.99,4.966,4.966,0,0,1-1.81.27h-.11C103.57,91.41,103.54,91.38,103.51,91.34Z" fill="#fff"/><path d="M114.28,86.32a3.187,3.187,0,0,1-.91-2.34,21.355,21.355,0,0,1,.15-2.55,16.164,16.164,0,0,1,.46-2.5,4.112,4.112,0,0,1,4.15-3.21,3.348,3.348,0,0,1,2.43.87,3.156,3.156,0,0,1,.91,2.32,20.722,20.722,0,0,1-.15,2.53,18.5,18.5,0,0,1-.46,2.55,4.133,4.133,0,0,1-4.15,3.21A3.321,3.321,0,0,1,114.28,86.32Zm4.22-1.07a2.813,2.813,0,0,0,.94-1.55c.15-.73.26-1.48.35-2.24.1-.85.17-1.59.2-2.24a2.264,2.264,0,0,0-.57-1.55,1.928,1.928,0,0,0-1.47-.58,2.422,2.422,0,0,0-1.62.58,2.813,2.813,0,0,0-.94,1.55c-.15.7-.26,1.45-.35,2.24-.1.85-.17,1.6-.2,2.24a2.264,2.264,0,0,0,.57,1.55,1.928,1.928,0,0,0,1.47.58A2.459,2.459,0,0,0,118.5,85.25Z" fill="#fff"/><path d="M130.64,75.91h1.1c.15,0,.2.07.18.22l-1.3,10.67a.237.237,0,0,1-.09.15.233.233,0,0,1-.15.07h-1.1c-.15,0-.21-.07-.18-.22l.09-.86c.01-.04.01-.07-.01-.07a.12.12,0,0,0-.08.04,3.086,3.086,0,0,1-2.63,1.25,3.043,3.043,0,0,1-2.1-.72,2.675,2.675,0,0,1-.8-2.08c0-.12.01-.32.04-.62l.94-7.62a.18.18,0,0,1,.07-.15.261.261,0,0,1,.17-.07h1.08c.15,0,.21.07.18.22l-.88,7.22a4.13,4.13,0,0,0-.04.5,2.03,2.03,0,0,0,.48,1.45,1.787,1.787,0,0,0,1.36.51,2.329,2.329,0,0,0,1.72-.69,2.968,2.968,0,0,0,.82-1.85l.88-7.14A.246.246,0,0,1,130.64,75.91Z" fill="#fff"/><path d="M140.02,76.06c.1.04.12.13.07.26l-.39,1.12a.208.208,0,0,1-.29.13,1.5,1.5,0,0,0-.68-.13,2.406,2.406,0,0,0-.31.02,2.24,2.24,0,0,0-1.65.82,3.693,3.693,0,0,0-.86,1.97l-.79,6.54a.237.237,0,0,1-.09.15.233.233,0,0,1-.15.07h-1.1c-.15,0-.21-.07-.18-.22l1.3-10.67a.237.237,0,0,1,.09-.15.257.257,0,0,1,.15-.07h1.1c.15,0,.21.07.18.22l-.15,1.38c-.01.04-.01.07.01.07a.12.12,0,0,0,.08-.04,3.455,3.455,0,0,1,1.11-1.27,2.58,2.58,0,0,1,1.5-.46A2.046,2.046,0,0,1,140.02,76.06Z" fill="#fff"/><path d="M153.1,81.48a17.2,17.2,0,0,1-.48,2.55,4.93,4.93,0,0,1-1.43,2.35,3.352,3.352,0,0,1-2.26.81,2.435,2.435,0,0,1-2.35-1.27c-.01-.04-.03-.06-.05-.05a.1.1,0,0,0-.05.08l-.09.86a.237.237,0,0,1-.09.15.257.257,0,0,1-.15.07h-1.1c-.15,0-.21-.07-.17-.22l1.82-14.93c.03-.15.11-.22.24-.22h1.1a.151.151,0,0,1,.14.07.14.14,0,0,1,.03.15L147.57,77c0,.04.01.07.03.07a.12.12,0,0,0,.08-.04,2.945,2.945,0,0,1,2.59-1.27,2.718,2.718,0,0,1,2.25.93,4.146,4.146,0,0,1,.76,2.69A20.464,20.464,0,0,1,153.1,81.48Zm-1.51-.02a13.763,13.763,0,0,0,.11-1.67,6.023,6.023,0,0,0-.04-.86,2.057,2.057,0,0,0-.56-1.34,1.757,1.757,0,0,0-1.33-.5,2.1,2.1,0,0,0-1.41.5,2.9,2.9,0,0,0-.83,1.38,15.722,15.722,0,0,0-.5,2.48q-.15,1.425-.15,1.95l.02.5a2.215,2.215,0,0,0,.53,1.39,1.672,1.672,0,0,0,1.3.52,2.22,2.22,0,0,0,1.49-.52,2.954,2.954,0,0,0,.9-1.42A16.256,16.256,0,0,0,151.59,81.46Z" fill="#fff"/><path d="M162.39,75.91h1.1c.15,0,.2.07.18.22l-1.3,10.67a.237.237,0,0,1-.09.15.233.233,0,0,1-.15.07h-1.1c-.15,0-.21-.07-.18-.22l.09-.86c.01-.04.01-.07-.01-.07a.12.12,0,0,0-.08.04,3.086,3.086,0,0,1-2.63,1.25,3.043,3.043,0,0,1-2.1-.72,2.675,2.675,0,0,1-.8-2.08c0-.12.01-.32.04-.62l.94-7.62a.18.18,0,0,1,.07-.15.261.261,0,0,1,.17-.07h1.08c.15,0,.21.07.18.22l-.88,7.22a4.129,4.129,0,0,0-.04.5,2.03,2.03,0,0,0,.48,1.45,1.787,1.787,0,0,0,1.36.51,2.329,2.329,0,0,0,1.72-.69,2.968,2.968,0,0,0,.82-1.85l.88-7.14A.239.239,0,0,1,162.39,75.91Z" fill="#fff"/><path d="M166.09,86.42a2.242,2.242,0,0,1-.89-1.84,3.007,3.007,0,0,1,.02-.35l.02-.2c.03-.15.11-.22.24-.22h1.01a.286.286,0,0,1,.17.04.1.1,0,0,1,.03.13l-.02.2a1.357,1.357,0,0,0,.46,1.23,2.136,2.136,0,0,0,1.51.5,2.435,2.435,0,0,0,1.65-.57,1.816,1.816,0,0,0,.66-1.43,1.163,1.163,0,0,0-.53-1.03,8.725,8.725,0,0,0-1.65-.77,7.3,7.3,0,0,1-2.1-1.09,2.122,2.122,0,0,1-.76-1.77,3.152,3.152,0,0,1,1.1-2.52,4.15,4.15,0,0,1,2.81-.94,3.53,3.53,0,0,1,2.35.72,2.407,2.407,0,0,1,.86,1.93,3.589,3.589,0,0,1-.02.4v.04a.237.237,0,0,1-.09.15.233.233,0,0,1-.15.07h-1.01c-.13,0-.2-.05-.2-.15l.02-.15a1.385,1.385,0,0,0-.44-1.24,2.057,2.057,0,0,0-1.47-.49,2.532,2.532,0,0,0-1.65.53,1.706,1.706,0,0,0-.64,1.36,1.16,1.16,0,0,0,.52,1.02,7.8,7.8,0,0,0,1.61.78,12.712,12.712,0,0,1,1.5.64,2.961,2.961,0,0,1,1.03.87,2.225,2.225,0,0,1,.43,1.42,3.118,3.118,0,0,1-.02.37,3.237,3.237,0,0,1-1.26,2.24,4.289,4.289,0,0,1-2.71.83A3.8,3.8,0,0,1,166.09,86.42Z" fill="#fff"/><path d="M174.62,86.79l1.3-10.67c.03-.15.11-.22.24-.22h1.1a.151.151,0,0,1,.14.07.136.136,0,0,1,.03.15l-1.32,10.67a.18.18,0,0,1-.07.15.267.267,0,0,1-.18.07h-1.08C174.64,87.01,174.59,86.94,174.62,86.79Zm1.6-13.16a.959.959,0,0,1-.26-.71,1.228,1.228,0,0,1,.36-.91,1.214,1.214,0,0,1,.89-.36.959.959,0,0,1,.7.26.889.889,0,0,1,.26.68,1.316,1.316,0,0,1-.35.94,1.149,1.149,0,0,1-.88.37A.888.888,0,0,1,176.22,73.63Z" fill="#fff"/><path d="M186.81,76.54a3.069,3.069,0,0,1,.74,2.17c0,.13-.01.36-.04.68l-.92,7.4a.18.18,0,0,1-.07.15.267.267,0,0,1-.18.07h-1.08c-.13,0-.2-.07-.2-.22l.9-7.18c.01-.1.02-.26.02-.46a2.126,2.126,0,0,0-.49-1.49,1.714,1.714,0,0,0-1.35-.55,2.315,2.315,0,0,0-1.7.69,2.971,2.971,0,0,0-.82,1.86l-.88,7.13a.237.237,0,0,1-.09.15.233.233,0,0,1-.15.07h-1.1c-.15,0-.21-.07-.18-.22l1.3-10.67a.237.237,0,0,1,.09-.15.257.257,0,0,1,.15-.07h1.1c.15,0,.21.07.18.22l-.09.81a.059.059,0,0,0,.01.07.068.068,0,0,0,.08-.02,3.224,3.224,0,0,1,1.2-.92,3.726,3.726,0,0,1,1.5-.31A2.712,2.712,0,0,1,186.81,76.54Z" fill="#fff"/><path d="M194.76,85.39a2.968,2.968,0,0,0,1-1.16.275.275,0,0,1,.11-.14.189.189,0,0,1,.15-.01l.86.24a.166.166,0,0,1,.11.26,4.148,4.148,0,0,1-1.51,1.91,4.218,4.218,0,0,1-2.44.7,3.276,3.276,0,0,1-2.36-.82,3.062,3.062,0,0,1-.91-2.23c-.01-.13-.02-.33-.02-.59a19.275,19.275,0,0,1,.15-2.11,24.806,24.806,0,0,1,.39-2.46,4.1,4.1,0,0,1,1.47-2.36,4.165,4.165,0,0,1,2.66-.89,3.271,3.271,0,0,1,2.47.9,3.357,3.357,0,0,1,.87,2.44,25.674,25.674,0,0,1-.22,2.72.18.18,0,0,1-.07.15.267.267,0,0,1-.18.07h-5.88a.1.1,0,0,0-.11.09c-.06.6-.1,1.13-.13,1.6a2.131,2.131,0,0,0,.57,1.55,2.043,2.043,0,0,0,1.54.58A2.6,2.6,0,0,0,194.76,85.39Zm-2.11-7.73a2.852,2.852,0,0,0-.91,1.51c-.09.4-.18.89-.26,1.49a.08.08,0,0,0,.09.09h4.5a.08.08,0,0,0,.09-.09l.04-.48a10.1,10.1,0,0,0,.07-1.01,2.064,2.064,0,0,0-.55-1.51,1.958,1.958,0,0,0-1.47-.57A2.394,2.394,0,0,0,192.65,77.66Z" fill="#fff"/><path d="M200.27,86.42a2.242,2.242,0,0,1-.89-1.84,3.007,3.007,0,0,1,.02-.35l.02-.2c.03-.15.11-.22.24-.22h1.01a.286.286,0,0,1,.17.04.1.1,0,0,1,.03.13l-.02.2a1.357,1.357,0,0,0,.46,1.23,2.136,2.136,0,0,0,1.51.5,2.435,2.435,0,0,0,1.65-.57,1.816,1.816,0,0,0,.66-1.43,1.163,1.163,0,0,0-.53-1.03,8.725,8.725,0,0,0-1.65-.77,7.3,7.3,0,0,1-2.1-1.09,2.122,2.122,0,0,1-.76-1.77,3.152,3.152,0,0,1,1.1-2.52,4.15,4.15,0,0,1,2.81-.94,3.53,3.53,0,0,1,2.35.72,2.407,2.407,0,0,1,.86,1.93,3.589,3.589,0,0,1-.02.4v.04a.237.237,0,0,1-.09.15.233.233,0,0,1-.15.07h-1.01c-.13,0-.2-.05-.2-.15l.02-.15a1.385,1.385,0,0,0-.44-1.24,2.057,2.057,0,0,0-1.47-.49,2.532,2.532,0,0,0-1.65.53,1.706,1.706,0,0,0-.64,1.36,1.16,1.16,0,0,0,.52,1.02,7.8,7.8,0,0,0,1.61.78,12.712,12.712,0,0,1,1.5.64,2.961,2.961,0,0,1,1.03.87,2.225,2.225,0,0,1,.43,1.42,3.118,3.118,0,0,1-.02.37,3.237,3.237,0,0,1-1.26,2.24,4.289,4.289,0,0,1-2.71.83A3.8,3.8,0,0,1,200.27,86.42Z" fill="#fff"/><path d="M208.94,86.42a2.242,2.242,0,0,1-.89-1.84,3.007,3.007,0,0,1,.02-.35l.02-.2c.03-.15.11-.22.24-.22h1.01a.286.286,0,0,1,.17.04.1.1,0,0,1,.03.13l-.02.2a1.357,1.357,0,0,0,.46,1.23,2.136,2.136,0,0,0,1.51.5,2.435,2.435,0,0,0,1.65-.57,1.816,1.816,0,0,0,.66-1.43,1.163,1.163,0,0,0-.53-1.03,8.725,8.725,0,0,0-1.65-.77,7.3,7.3,0,0,1-2.1-1.09,2.122,2.122,0,0,1-.76-1.77,3.152,3.152,0,0,1,1.1-2.52,4.15,4.15,0,0,1,2.81-.94,3.53,3.53,0,0,1,2.35.72,2.407,2.407,0,0,1,.86,1.93,3.589,3.589,0,0,1-.02.4v.04a.237.237,0,0,1-.09.15.233.233,0,0,1-.15.07h-1.01c-.13,0-.2-.05-.2-.15l.02-.15a1.385,1.385,0,0,0-.44-1.24,2.057,2.057,0,0,0-1.47-.49,2.532,2.532,0,0,0-1.65.53,1.706,1.706,0,0,0-.64,1.36,1.16,1.16,0,0,0,.52,1.02,7.8,7.8,0,0,0,1.61.78,12.712,12.712,0,0,1,1.5.64,2.961,2.961,0,0,1,1.03.87,2.225,2.225,0,0,1,.43,1.42,3.118,3.118,0,0,1-.02.37,3.237,3.237,0,0,1-1.26,2.24,4.289,4.289,0,0,1-2.71.83A3.818,3.818,0,0,1,208.94,86.42Z" fill="#fff"/><path d="M206.25,56.69a13.527,13.527,0,0,0,8.27-2.58,11.626,11.626,0,0,0,4.52-6.72l.32-1.1c.09-.47-.09-.71-.52-.71l-4.65-.32a.69.69,0,0,0-.78.58l-.13.65a6.332,6.332,0,0,1-2.26,3.46,6.4,6.4,0,0,1-4.13,1.39,4.889,4.889,0,0,1-3.75-1.45,5.476,5.476,0,0,1-1.36-3.91,51.689,51.689,0,0,1,.45-6.26,55.993,55.993,0,0,1,1.03-6.14,7.2,7.2,0,0,1,2.32-3.94,6.167,6.167,0,0,1,4.13-1.49,5.127,5.127,0,0,1,3.75,1.39,4.826,4.826,0,0,1,1.49,3.39v.78l.06.26a.4.4,0,0,0,.45.45h.13l4.71-.39a.779.779,0,0,0,.71-.71,11.091,11.091,0,0,0-.07-1.55,8.629,8.629,0,0,0-3-6.46,11.02,11.02,0,0,0-7.53-2.52,13.136,13.136,0,0,0-8.24,2.65,13,13,0,0,0-4.68,7.04,54.591,54.591,0,0,0-1.29,7.17,58.711,58.711,0,0,0-.52,7.3,9.729,9.729,0,0,0,2.94,7.14,10.753,10.753,0,0,0,7.63,2.6M182.22,28.14a4.986,4.986,0,0,1,3.84,1.49,5.513,5.513,0,0,1,1.39,3.94c0,.35-.04.99-.13,1.94l-.06,1.36a.233.233,0,0,1-.26.26H175.44c-.13,0-.19-.09-.19-.26.17-1.16.41-2.35.71-3.55a7.006,7.006,0,0,1,2.26-3.75,5.963,5.963,0,0,1,4-1.43m-2.39,23.19a5.387,5.387,0,0,1-4.01-1.49,5.324,5.324,0,0,1-1.49-3.94c0-1.03.07-2.22.19-3.55a.233.233,0,0,1,.26-.26h17.25a.641.641,0,0,0,.71-.65l.19-2.2q.45-4.515.45-5.88,0-4.98-2.65-7.78c-1.77-1.87-4.39-2.81-7.88-2.81a12.943,12.943,0,0,0-8.24,2.71,12.719,12.719,0,0,0-4.55,7.24,43.221,43.221,0,0,0-1.16,6.91,32.275,32.275,0,0,0-.32,4.97,24.69,24.69,0,0,0,.13,3.04,9.144,9.144,0,0,0,2.84,6.62,10.424,10.424,0,0,0,7.3,2.42,13.219,13.219,0,0,0,7.56-2.13,12.812,12.812,0,0,0,4.71-5.81.56.56,0,0,0-.32-.84l-3.68-1.1a.612.612,0,0,0-.84.39,7.8,7.8,0,0,1-2.62,3.04,6.633,6.633,0,0,1-3.83,1.1" fill="#fff"/><path d="M156.83,46.88q-1.815,4.455-5.56,4.46c-2.71,0-4.29-1.51-4.71-4.52a18.684,18.684,0,0,1-.19-2.78,37.032,37.032,0,0,1,.32-4.33,25.367,25.367,0,0,1,1.81-7.36c1.29-2.8,3.19-4.2,5.68-4.2q3.555,0,4.33,4.33a12.89,12.89,0,0,1,.26,2.84,37.2,37.2,0,0,1-.32,4.39,29.175,29.175,0,0,1-1.62,7.17m5.04-35.27-1.74,14.4c0,.13-.04.21-.13.23s-.15-.03-.19-.16c-1.16-2.2-3.27-3.29-6.33-3.29q-8.325,0-11.37,9.69a48.814,48.814,0,0,0-1.55,7.3c-.17,2.07-.26,3.6-.26,4.59a22.309,22.309,0,0,0,.13,2.84q.9,9.495,8.59,9.49a9.252,9.252,0,0,0,7.49-3.42c.04-.09.1-.11.16-.06a.206.206,0,0,1,.1.19l-.26,2.13a.486.486,0,0,0,.1.45.522.522,0,0,0,.42.19h4.78c.39,0,.62-.22.71-.65l5.43-43.93c0-.43-.19-.65-.58-.65h-4.78a.716.716,0,0,0-.72.66M138.81,22.97q-4.455,0-7.36,4.65c-.04.09-.1.12-.16.1s-.1-.1-.1-.23l.45-3.55c.09-.43-.09-.65-.52-.65h-4.78c-.39,0-.62.22-.71.65l-3.88,31.59a.486.486,0,0,0,.1.45.522.522,0,0,0,.42.19h4.78c.39,0,.62-.22.71-.65l2.33-18.86a8.8,8.8,0,0,1,2.23-4.97,6.385,6.385,0,0,1,4.3-2.2,5.729,5.729,0,0,1,.97-.06,5.067,5.067,0,0,1,2.13.39.534.534,0,0,0,.77-.39l1.55-4.91a.684.684,0,0,0-.19-.84,5.82,5.82,0,0,0-3.04-.71M111.04,46.88q-1.815,4.455-5.56,4.46-4.065,0-4.71-4.52a18.685,18.685,0,0,1-.19-2.78,37.034,37.034,0,0,1,.32-4.33,25.367,25.367,0,0,1,1.81-7.36c1.29-2.8,3.19-4.2,5.68-4.2q3.555,0,4.33,4.33a12.89,12.89,0,0,1,.26,2.84,37.2,37.2,0,0,1-.32,4.39,29.642,29.642,0,0,1-1.62,7.17m3.55-22.94-.26,2.07c0,.13-.04.21-.13.23s-.15-.03-.19-.16c-1.16-2.2-3.27-3.29-6.33-3.29q-8.34,0-11.37,9.69a47.592,47.592,0,0,0-1.55,7.3c-.17,2.07-.26,3.6-.26,4.59a22.312,22.312,0,0,0,.13,2.84q.9,9.5,8.59,9.49a9.252,9.252,0,0,0,7.49-3.42c.04-.09.1-.11.16-.06a.228.228,0,0,1,.1.19l-.26,2.13a.486.486,0,0,0,.1.45.522.522,0,0,0,.42.19h4.78c.39,0,.62-.22.71-.65l3.88-31.59a.486.486,0,0,0-.1-.45.522.522,0,0,0-.42-.19H115.3a.682.682,0,0,0-.71.64M83.71,47.13c-1.29,2.8-3.19,4.2-5.68,4.2-2.45,0-3.9-1.44-4.33-4.33a12.89,12.89,0,0,1-.26-2.84,37.2,37.2,0,0,1,.32-4.39,29,29,0,0,1,1.61-7.17q1.815-4.455,5.56-4.46c2.71,0,4.29,1.51,4.72,4.52a15.774,15.774,0,0,1,.19,2.58,40.568,40.568,0,0,1-.32,4.52,25.358,25.358,0,0,1-1.81,7.37m8.08-14.85q-.84-9.495-8.59-9.5a9.252,9.252,0,0,0-7.49,3.42c-.04.09-.1.11-.16.06a.228.228,0,0,1-.1-.19l.26-2.13a.486.486,0,0,0-.1-.45.522.522,0,0,0-.42-.19H70.41c-.39,0-.62.22-.71.65L64.27,67.88c0,.43.19.65.58.65h4.78a.654.654,0,0,0,.45-.19.6.6,0,0,0,.19-.45l1.81-14.4c0-.13.04-.2.13-.23s.15.03.19.16c1.16,2.2,3.27,3.29,6.33,3.29q8.34,0,11.37-9.69a41.135,41.135,0,0,0,1.49-7.3A41.764,41.764,0,0,0,91.91,35c.01-.61-.04-1.52-.12-2.72M52.64,28.14a4.951,4.951,0,0,1,3.84,1.49,5.529,5.529,0,0,1,1.39,3.94c0,.35-.04.99-.13,1.94l-.06,1.36a.233.233,0,0,1-.26.26H45.86c-.13,0-.19-.09-.19-.26.17-1.16.41-2.35.71-3.55a7.006,7.006,0,0,1,2.26-3.75,5.981,5.981,0,0,1,4-1.43M50.25,51.33a5.4,5.4,0,0,1-4.01-1.49,5.324,5.324,0,0,1-1.49-3.94c0-1.03.06-2.22.19-3.55a.233.233,0,0,1,.26-.26H62.45a.641.641,0,0,0,.71-.65l.19-2.2q.45-4.515.45-5.88,0-4.98-2.65-7.78c-1.77-1.87-4.39-2.81-7.88-2.81a12.943,12.943,0,0,0-8.24,2.71,12.668,12.668,0,0,0-4.55,7.24,42.124,42.124,0,0,0-1.16,6.91A32.275,32.275,0,0,0,39,44.6a24.692,24.692,0,0,0,.13,3.04,9.144,9.144,0,0,0,2.84,6.62,10.4,10.4,0,0,0,7.3,2.42,13.219,13.219,0,0,0,7.56-2.13,12.9,12.9,0,0,0,4.72-5.81.566.566,0,0,0-.32-.84l-3.68-1.1a.612.612,0,0,0-.84.39,7.8,7.8,0,0,1-2.62,3.04,6.665,6.665,0,0,1-3.84,1.1M28.42,45.65a7.329,7.329,0,0,1-2.26,3.81,5.828,5.828,0,0,1-4,1.48,4.763,4.763,0,0,1-3.65-1.48,5.646,5.646,0,0,1-1.45-3.88,51.136,51.136,0,0,1,.45-5.94,50.208,50.208,0,0,1,1.1-6.14,7.794,7.794,0,0,1,2.36-3.84,5.82,5.82,0,0,1,3.97-1.52,4.514,4.514,0,0,1,3.58,1.49,5.435,5.435,0,0,1,1.32,3.75,59.623,59.623,0,0,1-.58,6.27c-.26,2.14-.54,4.15-.84,6M31.2,23.94,31,25.69c-.09.26-.22.3-.39.13-1.42-2.02-3.64-3.04-6.65-3.04a10.414,10.414,0,0,0-7.07,2.55,13.052,13.052,0,0,0-4.04,6.88,22.663,22.663,0,0,0-.97,4.33c-.26,1.81-.41,2.87-.45,3.17-.13,1.29-.25,2.6-.35,3.91a24.245,24.245,0,0,0-.1,3.13,9.552,9.552,0,0,0,2.55,6.94,8.859,8.859,0,0,0,6.56,2.49,9.237,9.237,0,0,0,7.23-3.1c.09-.09.16-.11.23-.06s.08.11.03.19l-.13,1.23q-.645,5.1-3.33,7.23c-1.79,1.42-4.64,2.05-8.56,1.87-.39-.09-.62.11-.71.58l-.65,4.33a.591.591,0,0,0,.52.71c.47.04,1.14.06,2,.06q14.865,0,16.67-14.34L37.2,23.94a.486.486,0,0,0-.1-.45.522.522,0,0,0-.42-.19H31.9a.673.673,0,0,0-.7.64" fill="#ffc800"/></svg>