<?xml version="1.0" encoding="utf-8"?>
<!-- Generator: Adobe Illustrator 28.0.0, SVG Export Plug-In . SVG Version: 6.00 Build 0)  -->
<svg version="1.1" id="Ebene_1" xmlns="http://www.w3.org/2000/svg" xmlns:xlink="http://www.w3.org/1999/xlink" x="0px" y="0px"
	 viewBox="0 0 232 102.26" style="enable-background:new 0 0 232 102.26;" xml:space="preserve">
<style type="text/css">
	.st0{fill:none;}
	.st1{fill:#2B2B2B;}
	.st2{fill:#FFC800;}
</style>
<g>
	<rect class="st0" width="232" height="102.26"/>
	<g>
		<path class="st1" d="M36.36,86.42c-0.59-0.47-0.89-1.08-0.89-1.84c0-0.15,0.01-0.26,0.02-0.35l0.02-0.2
			c0.03-0.15,0.11-0.22,0.24-0.22h1.01c0.07,0,0.13,0.01,0.17,0.04c0.04,0.03,0.05,0.07,0.03,0.13l-0.02,0.2
			c-0.06,0.48,0.09,0.89,0.46,1.23s0.87,0.5,1.51,0.5c0.66,0,1.21-0.19,1.65-0.57c0.44-0.38,0.66-0.86,0.66-1.43
			c0-0.45-0.18-0.8-0.53-1.03c-0.35-0.23-0.9-0.49-1.65-0.77c-0.89-0.32-1.59-0.68-2.1-1.09s-0.76-0.99-0.76-1.77
			c0-1.05,0.37-1.9,1.1-2.52c0.73-0.63,1.67-0.94,2.81-0.94c1,0,1.78,0.24,2.35,0.72c0.57,0.48,0.86,1.13,0.86,1.93
			c0,0.18-0.01,0.31-0.02,0.4v0.04c-0.01,0.06-0.04,0.11-0.09,0.15s-0.09,0.07-0.15,0.07h-1.01c-0.13,0-0.2-0.05-0.2-0.15l0.02-0.15
			c0.06-0.5-0.09-0.91-0.44-1.24c-0.35-0.33-0.84-0.49-1.47-0.49c-0.67,0-1.22,0.18-1.65,0.53c-0.42,0.35-0.64,0.81-0.64,1.36
			c0,0.44,0.17,0.78,0.52,1.02c0.34,0.24,0.88,0.5,1.61,0.78c0.6,0.22,1.1,0.43,1.5,0.64c0.4,0.21,0.75,0.49,1.03,0.87
			c0.29,0.37,0.43,0.84,0.43,1.42c0,0.16-0.01,0.29-0.02,0.37c-0.12,0.94-0.54,1.68-1.26,2.24c-0.72,0.56-1.63,0.83-2.71,0.83
			C37.75,87.12,36.95,86.89,36.36,86.42z"/>
		<path class="st1" d="M44.89,86.79l1.3-10.67c0.03-0.15,0.11-0.22,0.24-0.22h1.1c0.06,0,0.11,0.02,0.14,0.07
			c0.04,0.04,0.05,0.09,0.03,0.15l-1.32,10.67c0,0.06-0.02,0.11-0.07,0.15s-0.1,0.07-0.18,0.07h-1.08
			C44.92,87.01,44.86,86.94,44.89,86.79z M46.49,73.63c-0.18-0.18-0.26-0.42-0.26-0.71c0-0.37,0.12-0.67,0.36-0.91
			c0.24-0.24,0.54-0.36,0.89-0.36c0.29,0,0.53,0.09,0.7,0.26c0.18,0.17,0.26,0.4,0.26,0.68c0,0.38-0.12,0.7-0.35,0.94
			c-0.23,0.25-0.53,0.37-0.88,0.37C46.91,73.91,46.67,73.82,46.49,73.63z"/>
		<path class="st1" d="M62.58,76.53c0.47,0.52,0.7,1.24,0.7,2.16c0,0.13-0.01,0.37-0.04,0.72l-0.9,7.38
			c-0.03,0.15-0.11,0.22-0.24,0.22h-1.08c-0.15,0-0.21-0.07-0.18-0.22l0.88-7.16c0.01-0.12,0.02-0.29,0.02-0.5
			c0-0.63-0.16-1.12-0.47-1.48c-0.32-0.36-0.74-0.54-1.29-0.54c-0.64,0-1.19,0.22-1.64,0.67c-0.45,0.45-0.71,1.05-0.8,1.81
			l-0.88,7.2c-0.03,0.15-0.11,0.22-0.24,0.22h-1.1c-0.15,0-0.21-0.07-0.18-0.22l0.88-7.16c0.01-0.12,0.02-0.29,0.02-0.5
			c0-0.63-0.16-1.12-0.47-1.48c-0.32-0.36-0.74-0.54-1.28-0.54c-0.64,0-1.19,0.22-1.62,0.67c-0.44,0.45-0.7,1.05-0.79,1.81
			l-0.88,7.2c-0.01,0.06-0.04,0.11-0.09,0.15s-0.09,0.07-0.15,0.07h-1.1c-0.15,0-0.21-0.07-0.18-0.22l1.3-10.67
			c0.01-0.06,0.04-0.11,0.09-0.15s0.1-0.07,0.15-0.07h1.1c0.15,0,0.21,0.07,0.18,0.22l-0.09,0.77c0,0.07,0.03,0.08,0.09,0.02
			c0.34-0.39,0.74-0.69,1.2-0.88s0.95-0.29,1.46-0.29c0.63,0,1.16,0.15,1.58,0.44c0.42,0.29,0.73,0.7,0.92,1.23
			c0,0.03,0.01,0.04,0.03,0.04c0.02,0,0.04-0.01,0.05-0.04c0.35-0.57,0.8-0.99,1.34-1.26c0.54-0.27,1.12-0.41,1.73-0.41
			C61.46,75.75,62.11,76.01,62.58,76.53z"/>
		<path class="st1" d="M73.58,81.44c-0.13,1.08-0.29,1.93-0.46,2.55c-0.29,1.02-0.76,1.81-1.42,2.37c-0.65,0.56-1.44,0.83-2.36,0.83
			c-1.13,0-1.89-0.42-2.28-1.27c-0.01-0.03-0.03-0.04-0.05-0.04c-0.02,0-0.04,0.02-0.05,0.07l-0.62,5.12
			c-0.01,0.06-0.04,0.11-0.09,0.15s-0.09,0.07-0.15,0.07H65c-0.15,0-0.21-0.07-0.18-0.22l1.82-14.93c0.03-0.15,0.11-0.22,0.24-0.22
			h1.1c0.06,0,0.11,0.02,0.14,0.07c0.04,0.04,0.05,0.09,0.03,0.15l-0.11,0.86c0,0.04,0.01,0.07,0.04,0.08
			c0.03,0.01,0.05-0.01,0.07-0.06c0.64-0.85,1.53-1.27,2.66-1.27c0.95,0,1.68,0.32,2.17,0.97c0.5,0.64,0.75,1.57,0.75,2.79
			C73.74,80,73.69,80.65,73.58,81.44z M72.07,81.46c0.09-0.75,0.13-1.35,0.13-1.8c0-0.29-0.01-0.5-0.02-0.64
			c-0.03-0.6-0.21-1.07-0.54-1.42c-0.33-0.34-0.79-0.52-1.37-0.52c-0.56,0-1.03,0.17-1.42,0.52s-0.68,0.81-0.87,1.39
			c-0.19,0.59-0.35,1.41-0.48,2.46c-0.09,0.76-0.13,1.38-0.13,1.84c0,0.29,0.01,0.5,0.02,0.64c0.03,0.58,0.19,1.05,0.49,1.38
			s0.73,0.5,1.28,0.5c0.56,0,1.04-0.17,1.45-0.5s0.71-0.78,0.9-1.34C71.75,83.36,71.94,82.51,72.07,81.46z"/>
		<path class="st1" d="M75.54,86.79l1.82-14.93c0.03-0.15,0.11-0.22,0.24-0.22h1.1c0.06,0,0.11,0.02,0.14,0.07
			c0.04,0.04,0.05,0.1,0.03,0.15l-1.82,14.93c-0.03,0.15-0.11,0.22-0.24,0.22h-1.1C75.57,87.01,75.51,86.94,75.54,86.79z"/>
		<path class="st1" d="M80.15,86.79l1.3-10.67c0.03-0.15,0.11-0.22,0.24-0.22h1.1c0.06,0,0.11,0.02,0.14,0.07
			c0.04,0.04,0.05,0.09,0.03,0.15l-1.32,10.67c0,0.06-0.02,0.11-0.07,0.15s-0.1,0.07-0.18,0.07h-1.08
			C80.18,87.01,80.12,86.94,80.15,86.79z M81.75,73.63c-0.18-0.18-0.26-0.42-0.26-0.71c0-0.37,0.12-0.67,0.36-0.91
			c0.24-0.24,0.54-0.36,0.89-0.36c0.29,0,0.53,0.09,0.7,0.26c0.18,0.17,0.26,0.4,0.26,0.68c0,0.38-0.12,0.7-0.35,0.94
			c-0.23,0.25-0.53,0.37-0.88,0.37C82.17,73.91,81.92,73.82,81.75,73.63z"/>
		<path class="st1" d="M88.87,73.47c-0.3,0.37-0.5,0.97-0.6,1.8l-0.07,0.55c0,0.06,0.03,0.09,0.09,0.09h2c0.15,0,0.2,0.07,0.17,0.22
			l-0.11,0.86c0,0.06-0.02,0.11-0.07,0.15c-0.04,0.04-0.1,0.07-0.18,0.07h-2c-0.06,0-0.09,0.03-0.09,0.09l-1.16,9.51
			c-0.03,0.15-0.11,0.22-0.24,0.22h-1.1c-0.06,0-0.11-0.02-0.14-0.07c-0.04-0.04-0.05-0.1-0.03-0.15l1.16-9.51
			c0-0.06-0.02-0.09-0.07-0.09h-1.14c-0.15,0-0.21-0.07-0.18-0.22l0.11-0.86c0-0.06,0.02-0.11,0.07-0.15s0.09-0.07,0.15-0.07h1.14
			c0.06,0,0.09-0.03,0.09-0.09l0.09-0.61c0.16-1.3,0.51-2.23,1.05-2.79c0.54-0.56,1.4-0.83,2.57-0.83h0.46
			c0.15,0,0.21,0.07,0.18,0.22l-0.11,0.9c0,0.06-0.02,0.11-0.07,0.15s-0.1,0.07-0.18,0.07h-0.37C89.65,72.92,89.17,73.1,88.87,73.47
			z"/>
		<path class="st1" d="M90.42,91.34c-0.03-0.04-0.04-0.1-0.02-0.15l0.11-0.9c0.03-0.15,0.08-0.22,0.15-0.22h0.13
			c0.5,0,0.89-0.08,1.19-0.24c0.29-0.16,0.56-0.45,0.8-0.86c0.24-0.41,0.52-1.04,0.82-1.89c0.01-0.03,0.02-0.07,0.02-0.13
			l-1.84-10.8V76.1c0-0.13,0.07-0.2,0.22-0.2h1.14c0.15,0,0.22,0.06,0.22,0.18l1.25,8.69c0.03,0.07,0.07,0.07,0.11,0l3.36-8.67
			c0.06-0.13,0.15-0.2,0.26-0.2h1.14c0.16,0,0.22,0.08,0.18,0.24l-4.94,11.83c-0.41,0.97-0.78,1.69-1.11,2.16
			c-0.33,0.48-0.72,0.8-1.16,0.99c-0.45,0.18-1.05,0.27-1.81,0.27h-0.11C90.49,91.41,90.45,91.38,90.42,91.34z"/>
		<path class="st1" d="M103.51,91.34c-0.03-0.04-0.04-0.1-0.02-0.15l0.11-0.9c0.03-0.15,0.08-0.22,0.15-0.22h0.13
			c0.5,0,0.89-0.08,1.19-0.24c0.29-0.16,0.56-0.45,0.8-0.86c0.24-0.41,0.52-1.04,0.82-1.89c0.01-0.03,0.02-0.07,0.02-0.13
			l-1.84-10.8V76.1c0-0.13,0.07-0.2,0.22-0.2h1.14c0.15,0,0.22,0.06,0.22,0.18l1.25,8.69c0.03,0.07,0.07,0.07,0.11,0l3.36-8.67
			c0.06-0.13,0.15-0.2,0.26-0.2h1.14c0.16,0,0.22,0.08,0.18,0.24l-4.94,11.83c-0.41,0.97-0.78,1.69-1.11,2.16
			c-0.33,0.48-0.72,0.8-1.16,0.99c-0.45,0.18-1.05,0.27-1.81,0.27h-0.11C103.57,91.41,103.54,91.38,103.51,91.34z"/>
		<path class="st1" d="M114.28,86.32c-0.59-0.58-0.9-1.36-0.91-2.34c-0.01-0.69,0.04-1.54,0.15-2.55c0.12-1.01,0.27-1.84,0.46-2.5
			c0.25-0.98,0.74-1.76,1.48-2.34c0.74-0.58,1.63-0.87,2.67-0.87c1.02,0,1.83,0.29,2.43,0.87c0.59,0.58,0.9,1.35,0.91,2.32
			c0.01,0.7-0.04,1.54-0.15,2.53c-0.12,1-0.27,1.84-0.46,2.55c-0.25,0.98-0.75,1.76-1.49,2.34c-0.75,0.58-1.63,0.87-2.66,0.87
			S114.87,86.9,114.28,86.32z M118.5,85.25c0.47-0.39,0.78-0.9,0.94-1.55c0.15-0.73,0.26-1.48,0.35-2.24
			c0.1-0.85,0.17-1.59,0.2-2.24c-0.01-0.64-0.21-1.16-0.57-1.55c-0.37-0.39-0.86-0.58-1.47-0.58c-0.62,0-1.16,0.19-1.62,0.58
			c-0.47,0.39-0.78,0.9-0.94,1.55c-0.15,0.7-0.26,1.45-0.35,2.24c-0.1,0.85-0.17,1.6-0.2,2.24c0.01,0.64,0.21,1.16,0.57,1.55
			c0.37,0.39,0.86,0.58,1.47,0.58S118.03,85.64,118.5,85.25z"/>
		<path class="st1" d="M130.64,75.91h1.1c0.15,0,0.2,0.07,0.18,0.22l-1.3,10.67c-0.01,0.06-0.04,0.11-0.09,0.15
			s-0.09,0.07-0.15,0.07h-1.1c-0.15,0-0.21-0.07-0.18-0.22l0.09-0.86c0.01-0.04,0.01-0.07-0.01-0.07c-0.02,0-0.05,0.01-0.08,0.04
			c-0.62,0.83-1.49,1.25-2.63,1.25c-0.86,0-1.56-0.24-2.1-0.72c-0.53-0.48-0.8-1.18-0.8-2.08c0-0.12,0.01-0.32,0.04-0.62l0.94-7.62
			c0-0.06,0.02-0.11,0.07-0.15s0.1-0.07,0.17-0.07h1.08c0.15,0,0.21,0.07,0.18,0.22l-0.88,7.22c-0.03,0.23-0.04,0.4-0.04,0.5
			c0,0.63,0.16,1.11,0.48,1.45c0.32,0.34,0.78,0.51,1.36,0.51c0.69,0,1.26-0.23,1.72-0.69s0.74-1.08,0.82-1.85l0.88-7.14
			C130.43,75.98,130.51,75.91,130.64,75.91z"/>
		<path class="st1" d="M140.02,76.06c0.1,0.04,0.12,0.13,0.07,0.26l-0.39,1.12c-0.06,0.13-0.15,0.18-0.29,0.13
			c-0.18-0.09-0.4-0.13-0.68-0.13c-0.13,0-0.23,0.01-0.31,0.02c-0.63,0.02-1.18,0.29-1.65,0.82c-0.47,0.54-0.75,1.19-0.86,1.97
			l-0.79,6.54c-0.01,0.06-0.04,0.11-0.09,0.15s-0.09,0.07-0.15,0.07h-1.1c-0.15,0-0.21-0.07-0.18-0.22l1.3-10.67
			c0.01-0.06,0.04-0.11,0.09-0.15s0.1-0.07,0.15-0.07h1.1c0.15,0,0.21,0.07,0.18,0.22l-0.15,1.38c-0.01,0.04-0.01,0.07,0.01,0.07
			c0.02,0,0.05-0.01,0.08-0.04c0.29-0.54,0.66-0.97,1.11-1.27c0.45-0.31,0.95-0.46,1.5-0.46C139.36,75.8,139.71,75.88,140.02,76.06z
			"/>
		<path class="st1" d="M153.1,81.48c-0.13,1.04-0.29,1.89-0.48,2.55c-0.32,1.03-0.8,1.81-1.43,2.35c-0.63,0.54-1.38,0.81-2.26,0.81
			c-1.11,0-1.9-0.42-2.35-1.27c-0.01-0.04-0.03-0.06-0.05-0.05c-0.02,0.01-0.04,0.03-0.05,0.08l-0.09,0.86
			c-0.01,0.06-0.04,0.11-0.09,0.15s-0.1,0.07-0.15,0.07h-1.1c-0.15,0-0.21-0.07-0.17-0.22l1.82-14.93c0.03-0.15,0.11-0.22,0.24-0.22
			h1.1c0.06,0,0.11,0.02,0.14,0.07c0.04,0.04,0.05,0.1,0.03,0.15l-0.64,5.12c0,0.04,0.01,0.07,0.03,0.07c0.02,0,0.05-0.01,0.08-0.04
			c0.59-0.85,1.45-1.27,2.59-1.27c1,0,1.75,0.31,2.25,0.93c0.51,0.62,0.76,1.52,0.76,2.69C153.28,79.78,153.22,80.49,153.1,81.48z
			 M151.59,81.46c0.07-0.57,0.11-1.13,0.11-1.67c0-0.39-0.01-0.68-0.04-0.86c-0.04-0.56-0.23-1-0.56-1.34
			c-0.33-0.34-0.77-0.5-1.33-0.5c-0.56,0-1.02,0.17-1.41,0.5c-0.38,0.34-0.66,0.8-0.83,1.38c-0.18,0.54-0.34,1.37-0.5,2.48
			c-0.1,0.95-0.15,1.6-0.15,1.95l0.02,0.5c0.04,0.59,0.22,1.05,0.53,1.39c0.31,0.34,0.74,0.52,1.3,0.52c0.58,0,1.08-0.17,1.49-0.52
			c0.41-0.34,0.71-0.82,0.9-1.42C151.29,83.31,151.45,82.5,151.59,81.46z"/>
		<path class="st1" d="M162.39,75.91h1.1c0.15,0,0.2,0.07,0.18,0.22l-1.3,10.67c-0.01,0.06-0.04,0.11-0.09,0.15
			s-0.09,0.07-0.15,0.07h-1.1c-0.15,0-0.21-0.07-0.18-0.22l0.09-0.86c0.01-0.04,0.01-0.07-0.01-0.07c-0.02,0-0.05,0.01-0.08,0.04
			c-0.62,0.83-1.49,1.25-2.63,1.25c-0.86,0-1.56-0.24-2.1-0.72c-0.53-0.48-0.8-1.18-0.8-2.08c0-0.12,0.01-0.32,0.04-0.62l0.94-7.62
			c0-0.06,0.02-0.11,0.07-0.15s0.1-0.07,0.17-0.07h1.08c0.15,0,0.21,0.07,0.18,0.22l-0.88,7.22c-0.03,0.23-0.04,0.4-0.04,0.5
			c0,0.63,0.16,1.11,0.48,1.45c0.32,0.34,0.78,0.51,1.36,0.51c0.69,0,1.26-0.23,1.72-0.69s0.74-1.08,0.82-1.85l0.88-7.14
			C162.17,75.98,162.26,75.91,162.39,75.91z"/>
		<path class="st1" d="M166.09,86.42c-0.59-0.47-0.89-1.08-0.89-1.84c0-0.15,0.01-0.26,0.02-0.35l0.02-0.2
			c0.03-0.15,0.11-0.22,0.24-0.22h1.01c0.07,0,0.13,0.01,0.17,0.04c0.04,0.03,0.05,0.07,0.03,0.13l-0.02,0.2
			c-0.06,0.48,0.09,0.89,0.46,1.23s0.87,0.5,1.51,0.5c0.66,0,1.21-0.19,1.65-0.57c0.44-0.38,0.66-0.86,0.66-1.43
			c0-0.45-0.18-0.8-0.53-1.03c-0.35-0.23-0.9-0.49-1.65-0.77c-0.89-0.32-1.59-0.68-2.1-1.09s-0.76-0.99-0.76-1.77
			c0-1.05,0.37-1.9,1.1-2.52c0.73-0.63,1.67-0.94,2.81-0.94c1,0,1.78,0.24,2.35,0.72c0.57,0.48,0.86,1.13,0.86,1.93
			c0,0.18-0.01,0.31-0.02,0.4v0.04c-0.01,0.06-0.04,0.11-0.09,0.15s-0.09,0.07-0.15,0.07h-1.01c-0.13,0-0.2-0.05-0.2-0.15l0.02-0.15
			c0.06-0.5-0.09-0.91-0.44-1.24c-0.35-0.33-0.84-0.49-1.47-0.49c-0.67,0-1.22,0.18-1.65,0.53c-0.42,0.35-0.64,0.81-0.64,1.36
			c0,0.44,0.17,0.78,0.52,1.02c0.34,0.24,0.88,0.5,1.61,0.78c0.6,0.22,1.1,0.43,1.5,0.64c0.4,0.21,0.75,0.49,1.03,0.87
			c0.29,0.37,0.43,0.84,0.43,1.42c0,0.16-0.01,0.29-0.02,0.37c-0.12,0.94-0.54,1.68-1.26,2.24c-0.72,0.56-1.63,0.83-2.71,0.83
			C167.48,87.12,166.68,86.89,166.09,86.42z"/>
		<path class="st1" d="M174.62,86.79l1.3-10.67c0.03-0.15,0.11-0.22,0.24-0.22h1.1c0.06,0,0.11,0.02,0.14,0.07
			c0.04,0.04,0.05,0.09,0.03,0.15l-1.32,10.67c0,0.06-0.02,0.11-0.07,0.15s-0.1,0.07-0.18,0.07h-1.08
			C174.64,87.01,174.59,86.94,174.62,86.79z M176.22,73.63c-0.18-0.18-0.26-0.42-0.26-0.71c0-0.37,0.12-0.67,0.36-0.91
			c0.24-0.24,0.54-0.36,0.89-0.36c0.29,0,0.53,0.09,0.7,0.26c0.18,0.17,0.26,0.4,0.26,0.68c0,0.38-0.12,0.7-0.35,0.94
			c-0.23,0.25-0.53,0.37-0.88,0.37C176.64,73.91,176.39,73.82,176.22,73.63z"/>
		<path class="st1" d="M186.81,76.54c0.49,0.53,0.74,1.25,0.74,2.17c0,0.13-0.01,0.36-0.04,0.68l-0.92,7.4
			c0,0.06-0.02,0.11-0.07,0.15s-0.1,0.07-0.18,0.07h-1.08c-0.13,0-0.2-0.07-0.2-0.22l0.9-7.18c0.01-0.1,0.02-0.26,0.02-0.46
			c0-0.63-0.16-1.13-0.49-1.49c-0.33-0.37-0.78-0.55-1.35-0.55c-0.67,0-1.24,0.23-1.7,0.69s-0.74,1.08-0.82,1.86l-0.88,7.13
			c-0.01,0.06-0.04,0.11-0.09,0.15s-0.09,0.07-0.15,0.07h-1.1c-0.15,0-0.21-0.07-0.18-0.22l1.3-10.67c0.01-0.06,0.04-0.11,0.09-0.15
			s0.1-0.07,0.15-0.07h1.1c0.15,0,0.21,0.07,0.18,0.22l-0.09,0.81c-0.01,0.03-0.01,0.05,0.01,0.07c0.02,0.01,0.05,0.01,0.08-0.02
			c0.34-0.41,0.74-0.72,1.2-0.92s0.96-0.31,1.5-0.31C185.63,75.75,186.32,76.02,186.81,76.54z"/>
		<path class="st1" d="M194.76,85.39c0.43-0.29,0.76-0.68,1-1.16c0.03-0.07,0.07-0.12,0.11-0.14c0.04-0.02,0.09-0.03,0.15-0.01
			l0.86,0.24c0.13,0.04,0.17,0.13,0.11,0.26c-0.32,0.8-0.83,1.44-1.51,1.91c-0.69,0.47-1.5,0.7-2.44,0.7c-1,0-1.78-0.27-2.36-0.82
			s-0.88-1.29-0.91-2.23c-0.01-0.13-0.02-0.33-0.02-0.59c0-0.54,0.05-1.24,0.15-2.11c0.13-1.08,0.26-1.9,0.39-2.46
			c0.23-0.98,0.72-1.77,1.47-2.36c0.75-0.59,1.63-0.89,2.66-0.89c1.07,0,1.89,0.3,2.47,0.9c0.58,0.6,0.87,1.41,0.87,2.44
			c0,0.56-0.07,1.46-0.22,2.72c0,0.06-0.02,0.11-0.07,0.15s-0.1,0.07-0.18,0.07h-5.88c-0.06,0-0.1,0.03-0.11,0.09
			c-0.06,0.6-0.1,1.13-0.13,1.6c0,0.64,0.19,1.16,0.57,1.55c0.38,0.39,0.89,0.58,1.54,0.58C193.83,85.83,194.33,85.68,194.76,85.39z
			 M192.65,77.66c-0.45,0.38-0.75,0.89-0.91,1.51c-0.09,0.4-0.18,0.89-0.26,1.49c0,0.06,0.03,0.09,0.09,0.09h4.5
			c0.06,0,0.09-0.03,0.09-0.09l0.04-0.48c0.04-0.38,0.07-0.72,0.07-1.01c0-0.63-0.18-1.13-0.55-1.51c-0.37-0.38-0.86-0.57-1.47-0.57
			C193.63,77.09,193.1,77.28,192.65,77.66z"/>
		<path class="st1" d="M200.27,86.42c-0.59-0.47-0.89-1.08-0.89-1.84c0-0.15,0.01-0.26,0.02-0.35l0.02-0.2
			c0.03-0.15,0.11-0.22,0.24-0.22h1.01c0.07,0,0.13,0.01,0.17,0.04c0.04,0.03,0.05,0.07,0.03,0.13l-0.02,0.2
			c-0.06,0.48,0.09,0.89,0.46,1.23s0.87,0.5,1.51,0.5c0.66,0,1.21-0.19,1.65-0.57c0.44-0.38,0.66-0.86,0.66-1.43
			c0-0.45-0.18-0.8-0.53-1.03c-0.35-0.23-0.9-0.49-1.65-0.77c-0.89-0.32-1.59-0.68-2.1-1.09s-0.76-0.99-0.76-1.77
			c0-1.05,0.37-1.9,1.1-2.52c0.73-0.63,1.67-0.94,2.81-0.94c1,0,1.78,0.24,2.35,0.72c0.57,0.48,0.86,1.13,0.86,1.93
			c0,0.18-0.01,0.31-0.02,0.4v0.04c-0.01,0.06-0.04,0.11-0.09,0.15s-0.09,0.07-0.15,0.07h-1.01c-0.13,0-0.2-0.05-0.2-0.15l0.02-0.15
			c0.06-0.5-0.09-0.91-0.44-1.24c-0.35-0.33-0.84-0.49-1.47-0.49c-0.67,0-1.22,0.18-1.65,0.53c-0.42,0.35-0.64,0.81-0.64,1.36
			c0,0.44,0.17,0.78,0.52,1.02c0.34,0.24,0.88,0.5,1.61,0.78c0.6,0.22,1.1,0.43,1.5,0.64c0.4,0.21,0.75,0.49,1.03,0.87
			c0.29,0.37,0.43,0.84,0.43,1.42c0,0.16-0.01,0.29-0.02,0.37c-0.12,0.94-0.54,1.68-1.26,2.24c-0.72,0.56-1.63,0.83-2.71,0.83
			C201.66,87.12,200.86,86.89,200.27,86.42z"/>
		<path class="st1" d="M208.94,86.42c-0.59-0.47-0.89-1.08-0.89-1.84c0-0.15,0.01-0.26,0.02-0.35l0.02-0.2
			c0.03-0.15,0.11-0.22,0.24-0.22h1.01c0.07,0,0.13,0.01,0.17,0.04c0.04,0.03,0.05,0.07,0.03,0.13l-0.02,0.2
			c-0.06,0.48,0.09,0.89,0.46,1.23s0.87,0.5,1.51,0.5c0.66,0,1.21-0.19,1.65-0.57c0.44-0.38,0.66-0.86,0.66-1.43
			c0-0.45-0.18-0.8-0.53-1.03c-0.35-0.23-0.9-0.49-1.65-0.77c-0.89-0.32-1.59-0.68-2.1-1.09s-0.76-0.99-0.76-1.77
			c0-1.05,0.37-1.9,1.1-2.52c0.73-0.63,1.67-0.94,2.81-0.94c1,0,1.78,0.24,2.35,0.72c0.57,0.48,0.86,1.13,0.86,1.93
			c0,0.18-0.01,0.31-0.02,0.4v0.04c-0.01,0.06-0.04,0.11-0.09,0.15s-0.09,0.07-0.15,0.07h-1.01c-0.13,0-0.2-0.05-0.2-0.15l0.02-0.15
			c0.06-0.5-0.09-0.91-0.44-1.24c-0.35-0.33-0.84-0.49-1.47-0.49c-0.67,0-1.22,0.18-1.65,0.53c-0.42,0.35-0.64,0.81-0.64,1.36
			c0,0.44,0.17,0.78,0.52,1.02c0.34,0.24,0.88,0.5,1.61,0.78c0.6,0.22,1.1,0.43,1.5,0.64c0.4,0.21,0.75,0.49,1.03,0.87
			c0.29,0.37,0.43,0.84,0.43,1.42c0,0.16-0.01,0.29-0.02,0.37c-0.12,0.94-0.54,1.68-1.26,2.24c-0.72,0.56-1.63,0.83-2.71,0.83
			C210.34,87.12,209.53,86.89,208.94,86.42z"/>
	</g>
	<g>
		<path class="st1" d="M206.25,56.69c3.19,0,5.94-0.86,8.27-2.58c2.33-1.72,3.83-3.96,4.52-6.72l0.32-1.1
			c0.09-0.47-0.09-0.71-0.52-0.71l-4.65-0.32c-0.39-0.04-0.65,0.15-0.78,0.58l-0.13,0.65c-0.35,1.38-1.1,2.53-2.26,3.46
			c-1.16,0.93-2.54,1.39-4.13,1.39c-1.59,0-2.84-0.48-3.75-1.45c-0.91-0.97-1.36-2.27-1.36-3.91c0-1.76,0.15-3.85,0.45-6.26
			c0.26-2.24,0.6-4.28,1.03-6.14c0.39-1.64,1.16-2.95,2.32-3.94c1.16-0.99,2.54-1.49,4.13-1.49c1.55,0,2.8,0.46,3.75,1.39
			c0.95,0.93,1.44,2.06,1.49,3.39v0.78l0.06,0.26c0,0.3,0.15,0.45,0.45,0.45h0.13l4.71-0.39c0.43-0.09,0.67-0.32,0.71-0.71
			c0-0.73-0.02-1.25-0.07-1.55c-0.09-2.63-1.09-4.78-3-6.46c-1.92-1.68-4.43-2.52-7.53-2.52c-3.19,0-5.93,0.88-8.24,2.65
			c-2.3,1.77-3.87,4.11-4.68,7.04c-0.52,1.98-0.95,4.37-1.29,7.17c-0.35,2.76-0.52,5.19-0.52,7.3c0.09,3.01,1.07,5.39,2.94,7.14
			S203.06,56.69,206.25,56.69 M182.22,28.14c1.64,0,2.92,0.5,3.84,1.49c0.93,0.99,1.39,2.3,1.39,3.94c0,0.35-0.04,0.99-0.13,1.94
			l-0.06,1.36c0,0.17-0.09,0.26-0.26,0.26h-11.56c-0.13,0-0.19-0.09-0.19-0.26c0.17-1.16,0.41-2.35,0.71-3.55
			c0.39-1.55,1.14-2.8,2.26-3.75C179.33,28.62,180.67,28.14,182.22,28.14 M179.83,51.33c-1.68,0-3.02-0.49-4.01-1.49
			c-0.99-0.99-1.49-2.3-1.49-3.94c0-1.03,0.07-2.22,0.19-3.55c0-0.17,0.09-0.26,0.26-0.26h17.25c0.43,0,0.67-0.22,0.71-0.65
			l0.19-2.2c0.3-3.01,0.45-4.97,0.45-5.88c0-3.32-0.88-5.91-2.65-7.78c-1.77-1.87-4.39-2.81-7.88-2.81c-3.19,0-5.93,0.9-8.24,2.71
			c-2.3,1.81-3.82,4.22-4.55,7.24c-0.52,1.94-0.9,4.24-1.16,6.91c-0.22,1.38-0.32,3.04-0.32,4.97c0,1.38,0.04,2.39,0.13,3.04
			c0.13,2.8,1.08,5.01,2.84,6.62c1.76,1.61,4.2,2.42,7.3,2.42c2.93,0,5.45-0.71,7.56-2.13c2.11-1.42,3.68-3.36,4.71-5.81
			c0.17-0.39,0.07-0.67-0.32-0.84l-3.68-1.1c-0.39-0.13-0.67,0-0.84,0.39c-0.65,1.29-1.52,2.3-2.62,3.04
			C182.58,50.97,181.29,51.33,179.83,51.33"/>
		<path class="st2" d="M156.83,46.88c-1.21,2.97-3.06,4.46-5.56,4.46c-2.71,0-4.29-1.51-4.71-4.52c-0.13-0.86-0.19-1.79-0.19-2.78
			c0-1.16,0.11-2.61,0.32-4.33c0.34-2.97,0.95-5.43,1.81-7.36c1.29-2.8,3.19-4.2,5.68-4.2c2.37,0,3.81,1.44,4.33,4.33
			c0.17,0.73,0.26,1.68,0.26,2.84c0,1.21-0.11,2.67-0.32,4.39C158.1,42.63,157.57,45.02,156.83,46.88 M161.87,11.61l-1.74,14.4
			c0,0.13-0.04,0.21-0.13,0.23c-0.09,0.02-0.15-0.03-0.19-0.16c-1.16-2.2-3.27-3.29-6.33-3.29c-5.55,0-9.35,3.23-11.37,9.69
			c-0.64,2.11-1.16,4.54-1.55,7.3c-0.17,2.07-0.26,3.6-0.26,4.59c0,1.25,0.04,2.2,0.13,2.84c0.6,6.33,3.47,9.49,8.59,9.49
			c3.1,0,5.6-1.14,7.49-3.42c0.04-0.09,0.1-0.11,0.16-0.06c0.07,0.04,0.1,0.11,0.1,0.19l-0.26,2.13c-0.04,0.17-0.01,0.32,0.1,0.45
			c0.11,0.13,0.25,0.19,0.42,0.19h4.78c0.39,0,0.62-0.22,0.71-0.65l5.43-43.93c0-0.43-0.19-0.65-0.58-0.65h-4.78
			C162.2,10.96,161.96,11.18,161.87,11.61 M138.81,22.97c-2.97,0-5.43,1.55-7.36,4.65c-0.04,0.09-0.1,0.12-0.16,0.1
			c-0.06-0.02-0.1-0.1-0.1-0.23l0.45-3.55c0.09-0.43-0.09-0.65-0.52-0.65h-4.78c-0.39,0-0.62,0.22-0.71,0.65l-3.88,31.59
			c-0.04,0.17-0.01,0.32,0.1,0.45c0.11,0.13,0.25,0.19,0.42,0.19h4.78c0.39,0,0.62-0.22,0.71-0.65l2.33-18.86
			c0.26-1.98,1-3.64,2.23-4.97c1.23-1.34,2.66-2.07,4.3-2.2c0.21-0.04,0.54-0.06,0.97-0.06c0.86,0,1.57,0.13,2.13,0.39
			c0.39,0.13,0.65,0,0.77-0.39l1.55-4.91c0.13-0.34,0.07-0.62-0.19-0.84C141.07,23.21,140.06,22.97,138.81,22.97 M111.04,46.88
			c-1.21,2.97-3.06,4.46-5.56,4.46c-2.71,0-4.28-1.51-4.71-4.52c-0.13-0.86-0.19-1.79-0.19-2.78c0-1.16,0.11-2.61,0.32-4.33
			c0.34-2.97,0.95-5.43,1.81-7.36c1.29-2.8,3.19-4.2,5.68-4.2c2.37,0,3.81,1.44,4.33,4.33c0.17,0.73,0.26,1.68,0.26,2.84
			c0,1.21-0.11,2.67-0.32,4.39C112.31,42.63,111.77,45.02,111.04,46.88 M114.59,23.94l-0.26,2.07c0,0.13-0.04,0.21-0.13,0.23
			c-0.09,0.02-0.15-0.03-0.19-0.16c-1.16-2.2-3.27-3.29-6.33-3.29c-5.56,0-9.35,3.23-11.37,9.69c-0.65,2.11-1.16,4.54-1.55,7.3
			c-0.17,2.07-0.26,3.6-0.26,4.59c0,1.25,0.04,2.2,0.13,2.84c0.6,6.33,3.47,9.49,8.59,9.49c3.1,0,5.6-1.14,7.49-3.42
			c0.04-0.09,0.1-0.11,0.16-0.06c0.06,0.04,0.1,0.11,0.1,0.19l-0.26,2.13c-0.04,0.17-0.01,0.32,0.1,0.45
			c0.11,0.13,0.25,0.19,0.42,0.19h4.78c0.39,0,0.62-0.22,0.71-0.65l3.88-31.59c0.04-0.17,0.01-0.32-0.1-0.45
			c-0.11-0.13-0.25-0.19-0.42-0.19h-4.78C114.91,23.3,114.68,23.51,114.59,23.94 M83.71,47.13c-1.29,2.8-3.19,4.2-5.68,4.2
			c-2.45,0-3.9-1.44-4.33-4.33c-0.17-0.73-0.26-1.68-0.26-2.84c0-1.21,0.11-2.67,0.32-4.39c0.34-2.93,0.88-5.32,1.61-7.17
			c1.21-2.97,3.06-4.46,5.56-4.46c2.71,0,4.29,1.51,4.72,4.52c0.13,0.78,0.19,1.64,0.19,2.58c0,1.21-0.11,2.71-0.32,4.52
			C85.18,42.74,84.57,45.2,83.71,47.13 M91.79,32.28c-0.56-6.33-3.42-9.5-8.59-9.5c-3.1,0-5.6,1.14-7.49,3.42
			c-0.04,0.09-0.1,0.11-0.16,0.06c-0.06-0.04-0.1-0.11-0.1-0.19l0.26-2.13c0.04-0.17,0.01-0.32-0.1-0.45
			c-0.11-0.13-0.25-0.19-0.42-0.19h-4.78c-0.39,0-0.62,0.22-0.71,0.65l-5.43,43.93c0,0.43,0.19,0.65,0.58,0.65h4.78
			c0.17,0,0.32-0.07,0.45-0.19s0.19-0.28,0.19-0.45l1.81-14.4c0-0.13,0.04-0.2,0.13-0.23c0.08-0.02,0.15,0.03,0.19,0.16
			c1.16,2.2,3.27,3.29,6.33,3.29c5.56,0,9.34-3.23,11.37-9.69c0.69-2.24,1.18-4.67,1.49-7.3c0.21-1.81,0.32-3.38,0.32-4.72
			C91.92,34.39,91.87,33.48,91.79,32.28 M52.64,28.14c1.64,0,2.92,0.49,3.84,1.49c0.93,0.99,1.39,2.31,1.39,3.94
			c0,0.35-0.04,0.99-0.13,1.94l-0.06,1.36c0,0.17-0.09,0.26-0.26,0.26H45.86c-0.13,0-0.19-0.09-0.19-0.26
			c0.17-1.16,0.41-2.35,0.71-3.55c0.39-1.55,1.14-2.8,2.26-3.75C49.76,28.62,51.09,28.14,52.64,28.14 M50.25,51.33
			c-1.68,0-3.01-0.49-4.01-1.49c-0.99-0.99-1.49-2.3-1.49-3.94c0-1.03,0.06-2.22,0.19-3.55c0-0.17,0.09-0.26,0.26-0.26h17.25
			c0.43,0,0.67-0.22,0.71-0.65l0.19-2.2c0.3-3.01,0.45-4.97,0.45-5.88c0-3.32-0.88-5.91-2.65-7.78c-1.77-1.87-4.39-2.81-7.88-2.81
			c-3.19,0-5.93,0.9-8.24,2.71c-2.31,1.81-3.82,4.22-4.55,7.24c-0.52,1.94-0.91,4.24-1.16,6.91c-0.22,1.38-0.32,3.04-0.32,4.97
			c0,1.38,0.04,2.39,0.13,3.04c0.13,2.8,1.08,5.01,2.84,6.62c1.77,1.62,4.2,2.42,7.3,2.42c2.93,0,5.45-0.71,7.56-2.13
			c2.11-1.42,3.68-3.36,4.72-5.81c0.17-0.39,0.06-0.67-0.32-0.84l-3.68-1.1c-0.39-0.13-0.67,0-0.84,0.39
			c-0.65,1.29-1.52,2.3-2.62,3.04C53,50.97,51.72,51.33,50.25,51.33 M28.42,45.65c-0.39,1.55-1.14,2.82-2.26,3.81
			c-1.12,0.99-2.45,1.48-4,1.48c-1.51,0-2.72-0.49-3.65-1.48c-0.93-0.99-1.41-2.28-1.45-3.88c0-1.51,0.15-3.49,0.45-5.94
			c0.34-2.63,0.71-4.67,1.1-6.14c0.43-1.55,1.22-2.83,2.36-3.84s2.47-1.52,3.97-1.52c1.51,0,2.7,0.49,3.58,1.49
			c0.88,0.99,1.32,2.24,1.32,3.75c0,1.12-0.19,3.21-0.58,6.27C29,41.79,28.72,43.8,28.42,45.65 M31.2,23.94L31,25.69
			c-0.09,0.26-0.22,0.3-0.39,0.13c-1.42-2.02-3.64-3.04-6.65-3.04c-2.76,0-5.11,0.85-7.07,2.55c-1.96,1.7-3.31,3.99-4.04,6.88
			c-0.39,1.08-0.71,2.52-0.97,4.33c-0.26,1.81-0.41,2.87-0.45,3.17c-0.13,1.29-0.25,2.6-0.35,3.91c-0.11,1.31-0.14,2.36-0.1,3.13
			c0.04,2.97,0.89,5.29,2.55,6.94c1.66,1.66,3.84,2.49,6.56,2.49c2.97,0,5.38-1.03,7.23-3.1c0.09-0.09,0.16-0.11,0.23-0.06
			c0.07,0.04,0.08,0.11,0.03,0.19l-0.13,1.23c-0.43,3.4-1.54,5.81-3.33,7.23c-1.79,1.42-4.64,2.05-8.56,1.87
			c-0.39-0.09-0.62,0.11-0.71,0.58l-0.65,4.33c-0.04,0.39,0.13,0.62,0.52,0.71c0.47,0.04,1.14,0.06,2,0.06
			c9.91,0,15.46-4.78,16.67-14.34l3.81-30.94c0.04-0.17,0.01-0.32-0.1-0.45c-0.11-0.13-0.25-0.19-0.42-0.19h-4.78
			C31.52,23.3,31.28,23.51,31.2,23.94"/>
	</g>
</g>
</svg>
